HIERARCHY
ROOT Hips
{
  OFFSET 0 0 0
  CHANNELS 6 Xposition Yposition Zposition Zrotation Yrotation Xrotation
  JOINT LeftThigh
  {
    OFFSET 8.409438 0 -5.917753
    CHANNELS 3 Zrotation Yrotation Xrotation
    JOINT LeftLeg
    {
      OFFSET 0 0 -42.358652
      CHANNELS 3 Zrotation Yrotation Xrotation
      JOINT LeftFoot
      {
        OFFSET 0 0 -39.357303
        CHANNELS 3 Zrotation Yrotation Xrotation
      }
    }
  }
  JOINT RightThigh
  {
    OFFSET -8.409438 0 -5.917753
    CHANNELS 3 Zrotation Yrotation Xrotation
    JOINT RightLeg
    {
      OFFSET 0 0 -42.358652
      CHANNELS 3 Zrotation Yrotation Xrotation
      JOINT RightFoot
      {
        OFFSET 0 0 -39.357303
        CHANNELS 3 Zrotation Yrotation Xrotation
      }
    }
  }
  JOINT SpineLow
  {
    OFFSET 0 0 4.719101
    CHANNELS 3 Zrotation Yrotation Xrotation
    JOINT SpineMid
    {
      OFFSET 0 0 12.899191
      CHANNELS 3 Zrotation Yrotation Xrotation
      JOINT Chest
      {
        OFFSET 0 0 12.899191
        CHANNELS 3 Zrotation Yrotation Xrotation
        JOINT LeftShoulder
        {
          OFFSET 7.550562 1.41573 9.438202
          CHANNELS 3 Zrotation Yrotation Xrotation
          JOINT LeftArm
          {
            OFFSET 9.155056 0 4.247191
            CHANNELS 3 Zrotation Yrotation Xrotation
            JOINT LeftForearm
            {
              OFFSET 0 0 25.771955
              CHANNELS 3 Zrotation Yrotation Xrotation
              JOINT LeftHand
              {
                OFFSET 0 0 25.197169
                CHANNELS 3 Zrotation Yrotation Xrotation
              }
            }
          }
        }
        JOINT RightShoulder
        {
          OFFSET -7.550562 1.41573 9.438202
          CHANNELS 3 Zrotation Yrotation Xrotation
          JOINT RightArm
          {
            OFFSET -9.155056 0 4.247191
            CHANNELS 3 Zrotation Yrotation Xrotation
            JOINT RightForearm
            {
              OFFSET 0 0 -25.771955
              CHANNELS 3 Zrotation Yrotation Xrotation
              JOINT RightHand
              {
                OFFSET 0 0 -25.197169
                CHANNELS 3 Zrotation Yrotation Xrotation
              }
            }
          }
        }
        JOINT Neck
        {
          OFFSET 0 0 15.101124
          CHANNELS 3 Zrotation Yrotation Xrotation
          JOINT Head
          {
            OFFSET 0 0 11.325843
            CHANNELS 3 Zrotation Yrotation Xrotation
            End Site
            {
              OFFSET 0 0 14.157303
            }
          }
        }
      }
    }
  }
}
MOTION
Frames: 16
Frame Time: 0.0
0.0  89.887642  0.0  16.302428  -17.24535  -116.609504  28.934723  5.974661  -53.211232  -11.474453  13.369933  84.979086  5.213265  1.220527  2.652712  -0.563883  11.951332  13.200468  10.104867  3.891943  16.276364  4.883217  2.544389  0.344886  2.346727  0.084591  2.481983  6.415453  -0.009801  6.785112  6.415453  -0.009801  6.785113  -16.318722  25.805597  8.778484  -175.543022  56.496781  -162.932812  -35.854296  -23.980713  66.64187  65.306317  9.189946  31.307164  -11.583428  5.166594  5.718026  97.084376  18.378718  38.320877  -37.906489  9.459252  -58.474442  96.909018  55.472541  -97.550816  -16.793912  4.956022  0.682787  -12.593117  3.701577  0.648902  
0.0  89.887642  0.0  15.768953  -16.535343  -115.866376  28.102667  6.116967  -53.149166  -11.2809  13.02977  84.89126  5.080546  1.295101  2.563212  -0.434912  11.465075  13.140924  9.4441  3.863883  16.055531  4.739898  2.53996  0.371602  2.243803  0.035843  2.415916  6.129761  -0.12608  6.600461  6.129761  -0.12608  6.600461  -15.817364  26.097401  8.620009  -174.686944  56.694659  -161.675329  -35.665321  -24.058469  67.342629  65.696906  9.837509  31.581848  -11.978451  5.375916  5.695359  96.500598  18.212402  38.164124  -39.187837  9.027794  -58.382191  98.173206  55.539104  -97.717531  -16.94128  5.119074  0.460733  -12.701351  3.830027  0.488067  
0.0  89.887642  0.0  15.264811  -15.814022  -115.163828  27.29804  6.20364  -53.082832  -11.064076  12.776591  84.821294  4.985593  1.375574  2.477605  -0.529512  11.117897  12.872924  8.99881  3.774198  15.949797  4.495284  2.563622  0.386564  2.194764  -0.014511  2.364198  5.991185  -0.253861  6.454891  5.991185  -0.253861  6.454891  -15.741748  26.387457  8.370456  -173.959307  56.832257  -160.446972  -35.52876  -24.272593  67.984653  66.21804  10.551244  31.794382  -12.453507  5.667404  5.786519  95.843048  18.10229  37.808431  -39.511804  8.856499  -58.488121  99.734461  55.061503  -96.892812  -17.298467  5.27176  0.21451  -12.96652  3.951499  0.310727  
0.0  89.887642  0.0  14.810972  -15.041112  -114.389651  26.476933  6.321242  -53.047486  -10.769855  12.554568  84.745507  4.883308  1.429494  2.389562  -0.526039  10.801177  12.669218  8.538862  3.708271  15.783117  4.126361  2.548271  0.321292  2.114944  -0.035153  2.290988  5.771731  -0.296013  6.253646  5.771731  -0.296013  6.253645  -15.295011  26.589169  8.276589  -173.290423  56.763464  -159.256222  -35.443415  -24.522104  68.776065  66.918694  11.350768  32.070866  -12.766494  5.926777  5.949643  95.356055  17.962814  37.365684  -40.295398  8.622079  -58.328383  101.239711  54.937756  -96.722413  -17.458658  5.392578  0.002011  -13.084311  4.048286  0.156187  
0.0  89.887642  0.0  14.396429  -14.281866  -113.708844  25.695312  6.357591  -52.905684  -10.437853  12.417249  84.630835  4.834177  1.492021  2.29486  -0.841481  10.594287  12.31883  8.207155  3.702596  15.662453  3.960641  2.526506  0.334861  2.090878  -0.06034  2.240069  5.704034  -0.358071  6.112582  5.704034  -0.358071  6.112582  -15.197731  26.828987  8.138843  -172.876833  56.737321  -158.090737  -35.520623  -24.831387  69.486048  67.747847  12.309972  32.421851  -13.260082  6.146093  6.059122  94.930649  17.78354  36.998299  -40.67456  8.44836  -58.254288  102.912492  54.628664  -96.079394  -17.875408  5.475538  -0.237808  -13.394184  4.117775  -0.017569  
0.0  89.887642  0.0  14.071734  -13.529089  -113.040962  24.981582  6.444825  -52.69657  -10.081501  12.22952  84.490044  4.762303  1.527667  2.211592  -1.058146  10.440798  12.116828  7.744213  3.676366  15.342275  3.873757  2.484908  0.343516  2.056902  -0.051654  2.177153  5.612491  -0.325906  5.941733  5.612491  -0.325906  5.941733  -14.923919  26.944639  8.13052  -172.194603  56.430373  -157.039104  -35.586837  -25.006689  70.510108  68.61897  13.20939  32.919236  -13.617774  6.2503  6.231116  94.695288  17.59864  36.761477  -41.183359  8.102593  -58.11026  104.72209  54.542579  -95.455559  -18.131027  5.508652  -0.415238  -13.584016  4.148123  -0.147383  
0.0  89.887642  0.0  13.734595  -12.81316  -112.444724  24.309241  6.477766  -52.421332  -9.762168  12.029563  84.319819  4.716248  1.588409  2.159851  -1.437017  10.316516  11.818696  7.596255  3.646787  15.168593  3.782543  2.482343  0.361544  2.06807  -0.056884  2.1332  5.642835  -0.337434  5.82117  5.642836  -0.337434  5.82117  -14.861756  27.11834  8.104558  -172.075233  56.364302  -156.076858  -35.823628  -25.252201  71.280822  69.520385  14.184361  33.485366  -14.021089  6.340167  6.440039  94.44086  17.552272  36.662967  -41.51144  7.731004  -57.983978  106.52614  54.481488  -94.629579  -18.620605  5.497833  -0.617141  -13.949156  4.146729  -0.294764  
0.0  89.887642  0.0  13.482343  -12.060036  -111.81511  23.6252  6.546383  -52.196402  -9.378183  11.771334  84.221928  4.629117  1.657959  2.097299  -1.807382  10.163553  11.485095  7.404894  3.647735  14.957602  3.661755  2.497383  0.369259  2.050844  -0.056402  2.061023  5.596332  -0.328505  5.624204  5.596332  -0.328505  5.624204  -14.557912  27.334818  8.299746  -171.839396  56.132376  -155.150117  -36.078013  -25.620271  71.360874  70.468398  14.217944  34.594949  -14.358156  6.476329  6.67059  94.387787  17.549815  36.710047  -41.857241  7.175085  -57.716546  108.414635  54.263838  -93.419668  -18.931097  5.558202  -0.753393  -14.18031  4.196748  -0.392296  
0.0  89.887642  0.0  13.176156  -11.415305  -111.239324  23.016044  6.422359  -52.023878  -8.914747  11.57125  84.193384  4.546523  1.727363  2.027899  -2.027446  9.9838  11.177998  7.316952  3.603334  14.79192  3.513447  2.494928  0.41447  2.08763  -0.06713  2.032374  5.696106  -0.358441  5.544788  5.696106  -0.358441  5.544788  -14.503865  27.441202  8.38802  -171.865958  55.935185  -154.205178  -36.220798  -26.075831  72.13811  71.666962  14.858188  35.367744  -14.70235  6.576413  6.815271  94.140737  17.739903  36.736413  -41.843793  6.739165  -57.513856  110.144313  54.33497  -92.354555  -19.491174  5.494735  -0.997464  -14.598202  4.157866  -0.572388  
0.0  89.887642  0.0  12.923826  -10.755949  -110.665089  22.431057  6.305303  -51.891242  -8.400802  11.313585  84.224748  4.403086  1.800392  1.95368  -2.227714  9.716477  10.906169  7.055545  3.659665  14.491705  3.499241  2.503316  0.521753  2.079112  -0.049192  2.003852  5.674521  -0.306333  5.468483  5.674521  -0.306333  5.468483  -14.189858  27.410455  8.501834  -171.91162  55.61297  -153.375192  -36.214655  -26.854471  72.786556  73.127967  15.230814  36.4605  -15.003672  6.537629  6.843526  94.027332  17.978215  36.874744  -41.582051  6.103072  -57.279299  112.16149  53.88092  -90.484969  -19.788918  5.379694  -1.222392  -14.820044  4.079417  -0.742284  
0.0  89.887642  0.0  12.666617  -10.176118  -110.142224  21.975243  6.170456  -51.678392  -7.970764  11.184563  84.1784  4.381072  1.878053  1.893829  -2.220286  9.486792  10.660587  6.878679  3.626319  14.303407  3.350023  2.51143  0.588211  2.119216  -0.036568  2.007355  5.785072  -0.275502  5.478886  5.785072  -0.275502  5.478885  -14.06223  27.336907  8.564411  -172.199192  55.354198  -152.631356  -36.026742  -27.909484  73.480917  74.788703  15.693614  37.728558  -15.227003  6.52004  6.846597  93.7989  18.244352  36.94614  -41.374593  5.604679  -57.0522  113.836316  53.969749  -89.318256  -20.321682  5.177922  -1.524369  -15.21804  3.939299  -0.971068  
0.0  89.887642  0.0  12.463017  -9.430718  -109.512859  21.428555  6.192202  -51.541536  -7.533831  10.986604  84.150296  4.258677  1.950114  1.822699  -2.374504  9.341819  10.290787  6.849006  3.614212  14.17956  3.095929  2.495085  0.590294  2.114021  -0.006237  2.008279  5.77338  -0.192384  5.484077  5.77338  -0.192384  5.484076  -13.816944  27.232826  8.545816  -172.732448  55.150008  -152.154065  -35.773107  -29.079856  74.043003  76.668759  16.039104  39.253813  -15.548112  6.384111  6.701176  93.680824  18.59287  37.138821  -40.932439  4.918583  -56.753044  115.772439  54.141832  -87.98305  -20.696018  4.969001  -1.866512  -15.497242  3.79514  -1.231923  
0.0  89.887642  0.0  12.347085  -8.941209  -109.148571  21.161338  6.122912  -51.103033  -7.101467  10.860715  84.019317  4.254568  2.024152  1.767269  -2.211986  9.249359  10.172203  6.653716  3.599119  14.000192  2.966899  2.476023  0.624065  2.160785  -3.84E-4  2.017322  5.901546  -0.181093  5.509067  5.901546  -0.181093  5.509067  -13.505656  27.28909  8.777876  -173.662206  55.053694  -151.987527  -35.501605  -30.335317  74.462258  78.414952  16.42234  40.652233  -15.641599  6.484383  6.792645  93.738743  18.81228  37.289935  -40.833624  4.353376  -56.385257  117.382619  54.238982  -86.851093  -21.165682  4.86718  -2.129023  -15.847953  3.729459  -1.428799  
0.0  89.887642  0.0  12.254194  -8.603795  -108.878008  21.093788  5.973324  -50.528973  -6.588687  10.536472  83.898086  4.101227  2.044739  1.695033  -1.862536  9.069536  10.183009  6.35199  3.584821  13.725565  2.91012  2.472883  0.688163  2.232057  0.005409  2.031859  6.096621  -0.172557  5.548954  6.096621  -0.172557  5.548954  -13.170596  27.30163  9.090534  -174.546539  54.919619  -151.875324  -34.945531  -31.641438  74.687185  79.491485  16.938111  41.576434  -15.880348  6.498536  6.901711  93.39827  19.318184  37.41196  -40.084355  3.814607  -56.132773  119.011595  54.341137  -85.704215  -21.554437  4.785296  -2.341614  -16.138347  3.677031  -1.588292  
0.0  89.887642  0.0  12.059215  -8.039777  -108.343557  20.842525  5.829676  -50.218585  -6.168412  10.518313  83.696343  4.044972  2.112205  1.647505  -1.75195  8.893211  9.924766  6.176302  3.551732  13.5072  2.780325  2.470003  0.739694  2.293129  -0.004364  2.014343  6.262693  -0.202684  5.499915  6.262693  -0.202684  5.499915  -13.044838  27.359234  9.387479  -175.372806  54.762003  -151.77893  -34.256458  -32.757126  74.762636  80.061391  17.810206  41.953155  -16.101546  6.594173  6.978607  93.713282  19.476172  37.675629  -40.128247  3.403468  -55.735765  120.354509  54.558129  -84.608651  -22.102932  4.735449  -2.588692  -16.548029  3.65094  -1.771424  
0.0  89.887642  0.0  11.878084  -7.391309  -107.830884  20.624198  5.674466  -49.918058  -5.713371  10.370466  83.630262  3.800455  2.145227  1.541433  -1.556353  8.656103  9.796237  5.868865  3.567912  13.207641  2.615099  2.463095  0.764803  2.336435  -0.003829  2.005142  6.381064  -0.203934  5.474619  6.381064  -0.203934  5.474619  -12.938392  27.335345  9.63762  -176.255487  54.590509  -151.867889  -33.815712  -33.274574  74.795571  80.428231  18.913423  42.024479  -16.429245  6.571621  7.000332  93.761292  19.826067  37.949145  -39.627547  3.160169  -55.474752  121.579396  54.943452  -83.352236  -22.540096  4.686502  -2.817376  -16.874444  3.624718  -1.941666  
